<svg width="67" height="249" viewBox="0 0 67 249" fill="none" xmlns="http://www.w3.org/2000/svg">
<path d="M65.9068 142.483C65.4835 171.007 65.5912 199.638 65.645 228.198C65.6521 232.575 66.0108 235.778 64.8271 240.183C64.1169 242.823 62.7108 247.091 59.5793 247.522C47.9286 249.096 35.4995 248.522 23.7377 248.738C18.0307 248.11 12.1265 248.35 6.47688 247.479C4.28879 247.141 3.43149 245.678 2.53115 243.827C0.109903 238.845 0.0632717 233.6 0.117077 228.177C0.34306 207.39 0.694589 186.528 0.848831 165.752C0.945681 152.749 -0.0586874 138.15 0.841657 125.383C1.25058 119.626 3.62161 112.556 6.62395 107.66C9.10618 103.614 12.2305 101.024 13.7729 96.2889C15.118 92.1674 15.0176 89.1901 15.075 85.022C15.3297 66.5022 17.9446 48.5886 19.5982 30.1727C19.7955 28.0062 20.7999 23.6838 20.2044 21.7289C19.8816 20.6815 18.3105 20.5272 18.3966 19.2395L20.782 9.2747C20.9649 6.91802 19.8457 7.2265 19.6054 5.93876C19.2969 4.27079 20.5918 2.64586 22.041 1.98585C23.6588 1.2541 26.7759 0.809304 28.5622 0.66941C32.4326 0.375273 42.1499 0.224618 45.3173 2.30868C46.336 2.97587 47.7313 4.59721 47.3296 5.89571C47.2184 6.27594 46.6947 6.49475 46.4866 6.95747C45.6975 8.69718 46.9924 13.1559 47.4444 15.1395C47.6632 16.0829 48.6066 18.5041 48.5563 19.2287C48.4703 20.6635 45.7082 21.0007 46.4185 23.0489C48.0506 42.6377 51.5408 62.2551 51.8995 81.9156C51.9927 86.8478 51.4367 89.9219 52.9074 94.9186C54.891 101.63 60.1819 106.487 62.926 112.911C66.9937 122.446 66.0575 132.367 65.9104 142.479L65.9068 142.483Z" fill="#E6636D"/>
</svg>
