<svg width="67" height="249" viewBox="0 0 67 249" fill="none" xmlns="http://www.w3.org/2000/svg">
<path d="M66.6177 142.288C66.1945 170.812 66.3021 199.444 66.3559 228.004C66.3631 232.38 66.7218 235.583 65.538 239.988C64.8278 242.628 63.4217 246.897 60.2902 247.327C48.6396 248.902 36.2105 248.328 24.4486 248.543C18.7416 247.916 12.8374 248.156 7.18782 247.284C4.99973 246.947 4.14243 245.484 3.24209 243.633C0.820841 238.65 0.774209 233.406 0.828015 227.982C1.054 207.196 1.40553 186.333 1.55977 165.557C1.65662 152.554 0.65225 137.955 1.55259 125.189C1.96152 119.432 4.33254 112.362 7.33489 107.465C9.81711 103.419 12.9414 100.829 14.4838 96.0945C15.829 91.973 15.7285 88.9958 15.7859 84.8277C16.0406 66.3078 18.6556 48.3942 20.3092 29.9784C20.5065 27.8118 21.5108 23.4895 20.9154 21.5345C20.5926 20.4871 19.0214 20.3329 19.1075 19.0451L21.4929 9.08036C21.6758 6.72368 20.5567 7.03216 20.3164 5.74442C20.0079 4.07645 21.3028 2.45153 22.7519 1.79151C24.3697 1.05976 27.4868 0.614968 29.2732 0.475074C33.1436 0.180937 42.8608 0.0302819 46.0282 2.11435C47.0469 2.78153 48.4423 4.40287 48.0405 5.70138C47.9293 6.0816 47.4056 6.30041 47.1976 6.76314C46.4084 8.50285 47.7033 12.9615 48.1553 14.9452C48.3741 15.8885 49.3175 18.3098 49.2673 19.0344C49.1812 20.4692 46.4192 20.8064 47.1294 22.8546C48.7615 42.4433 52.2517 62.0608 52.6104 81.7213C52.7037 86.6535 52.1477 89.7276 53.6183 94.7243C55.602 101.436 60.8928 106.292 63.6369 112.717C67.7046 122.251 66.7684 132.173 66.6213 142.285L66.6177 142.288Z" fill="#D1BA55"/>
</svg>
