<svg width="67" height="250" viewBox="0 0 67 250" fill="none" xmlns="http://www.w3.org/2000/svg">
<path d="M66.3204 142.869C65.8971 171.393 66.0047 200.025 66.0585 228.585C66.0657 232.961 66.4244 236.164 65.2407 240.569C64.5305 243.209 63.1243 247.477 59.9929 247.908C48.3422 249.483 35.9131 248.909 24.1512 249.124C18.4443 248.496 12.54 248.737 6.89046 247.865C4.70237 247.528 3.84507 246.064 2.94472 244.213C0.523477 239.231 0.476846 233.987 0.530651 228.563C0.756634 207.776 1.10816 186.914 1.26241 166.138C1.35926 153.135 0.354887 138.536 1.25523 125.77C1.66415 120.012 4.03518 112.942 7.03753 108.046C9.51975 104 12.6441 101.41 14.1865 96.6751C15.5316 92.5536 15.4312 89.5764 15.4886 85.4082C15.7432 66.8884 18.3582 48.9748 20.0118 30.559C20.2091 28.3924 21.2135 24.07 20.618 22.1151C20.2952 21.0677 18.7241 20.9134 18.8102 19.6257L21.1955 9.66093C21.3785 7.30425 20.2593 7.61273 20.019 6.32499C19.7105 4.65702 21.0054 3.03209 22.4546 2.37208C24.0723 1.64033 27.1895 1.19553 28.9758 1.05564C32.8462 0.761504 42.5635 0.610848 45.7308 2.69491C46.7495 3.3621 48.1449 4.98344 47.7431 6.28194C47.632 6.66217 47.1082 6.88098 46.9002 7.3437C46.1111 9.08341 47.406 13.5421 47.8579 15.5257C48.0767 16.4691 49.0201 18.8904 48.9699 19.6149C48.8838 21.0497 46.1218 21.3869 46.832 23.4351C48.4641 43.0239 51.9543 62.6414 52.313 82.3019C52.4063 87.234 51.8503 90.3081 53.321 95.3049C55.3046 102.016 60.5955 106.873 63.3396 113.297C67.4073 122.832 66.471 132.753 66.324 142.865L66.3204 142.869Z" fill="#951610"/>
</svg>
