<svg width="834" height="1280" viewBox="0 0 834 1280" fill="none" xmlns="http://www.w3.org/2000/svg">
<path d="M389.421 198.004C388.506 196.754 386.939 191.625 386.155 186.747C378.577 142.72 367.603 114.327 348.66 90.1873C334.681 72.4262 322.661 61.9197 285.689 35.1531C266.745 21.3946 245.58 6.00997 238.656 1.00687C231.863 -3.99624 224.808 -8.37388 223.24 -8.74911C215.663 -10.6253 210.698 -6.99808 190.971 14.5153C183.655 22.3952 172.027 34.6528 164.972 41.6571L152.038 54.4151L139.888 53.6646C126.955 52.9141 120.945 53.6646 120.945 56.1662C121.076 56.9166 105.921 86.435 87.4997 121.582C54.5771 184.246 53.9238 185.622 55.6222 189.499C59.9335 199.755 90.6352 219.893 117.679 230.274C145.637 241.031 188.488 248.035 269.88 255.04L287.518 256.541L279.026 259.668C266.222 264.17 248.585 272.301 230.818 281.556C187.182 304.32 158.309 322.832 118.463 353.601C100.303 367.61 77.8319 384.87 68.4255 391.75C59.1497 398.754 51.3109 404.758 50.919 405.008C50.6577 405.383 55.7529 407.51 62.4158 409.761C98.4739 421.768 129.176 440.405 159.093 468.297L174.379 482.556L188.488 470.173C196.197 463.294 216.838 445.283 234.084 430.274C251.459 415.139 273.93 395.377 284.121 386.121L302.542 369.486V416.89C302.542 457.666 302.803 464.67 304.632 467.046C305.677 468.547 307.768 469.798 309.205 469.798C311.426 469.798 311.687 470.799 311.687 481.681V493.438L306.2 494.814C303.064 495.564 291.96 498.941 281.508 502.318C185.745 533.088 103.308 598.878 51.9642 685.682C27.4029 727.208 10.8109 775.238 2.4496 829.397C-0.816533 851.035 -0.816533 909.196 2.4496 931.96C11.4641 993.373 33.4125 1050.03 67.3803 1099.31C93.64 1137.59 129.306 1173.86 167.977 1201.63C269.88 1274.8 405.229 1298.56 529.342 1265.17C580.816 1251.41 636.21 1224.02 678.8 1191.5C697.352 1177.36 730.405 1145.34 744.645 1127.71C765.679 1101.69 783.186 1074.3 796.25 1046.78C853.995 924.581 845.112 785.869 772.211 671.048C744.123 626.771 700.487 582.618 654.631 552.099C617.005 527.084 569.842 506.071 525.684 494.689L515.494 492.062V480.93C515.494 470.048 515.624 469.798 518.498 469.798C520.197 469.798 522.548 468.798 523.724 467.547C525.684 465.42 525.945 460.167 525.945 418.016V370.737L547.24 389.999C558.868 400.505 587.087 425.396 609.95 445.158L651.495 481.305L656.852 475.177C681.674 447.284 717.994 421.768 754.052 407.134L770.513 400.505L766.724 397.879C763.066 395.377 744.384 381.118 699.834 346.597C663.645 318.704 621.186 292.813 577.55 272.05C566.053 266.672 552.597 260.793 547.632 259.167L538.487 256.165L545.673 255.415C549.461 255.04 563.048 253.789 575.59 252.788C618.703 249.161 659.334 243.408 683.111 237.654C704.799 232.401 725.179 223.77 745.299 211.263C758.102 203.383 771.558 191 771.558 187.248C771.558 182.87 761.76 163.108 737.199 117.704C724.134 93.6894 711.723 70.0498 709.502 65.1718C707.281 60.4188 705.06 55.6659 704.537 54.7903C703.753 53.7897 699.05 53.2895 688.729 53.2895H673.966L661.032 40.4064C653.978 33.402 644.048 23.1457 639.084 17.6422C623.929 1.00691 617.005 -5.62219 611.779 -8.12375C606.945 -10.6253 606.815 -10.6253 601.327 -8.12375C598.323 -6.74789 591.006 -2.12 585.127 2.25772C579.248 6.63544 558.998 21.3946 540.055 35.0281C521.242 48.7866 501.253 64.4213 495.766 69.6746C475.647 89.1867 461.145 111.701 452.131 137.342C447.819 149.974 439.719 184.496 439.719 191C439.719 192.876 438.543 195.628 437.106 197.254M431.358 259.417C436.192 261.794 437.76 263.795 445.076 277.304C449.518 285.684 456.703 297.066 460.884 302.694C467.939 311.95 468.461 313.201 467.808 317.829C466.502 326.834 458.663 340.093 450.171 347.597C439.066 357.478 432.011 359.73 412.414 359.73C397.39 359.73 396.737 359.605 387.853 355.352C376.618 349.974 367.734 341.218 362.639 330.587C356.498 317.704 356.498 315.077 362.769 307.072C369.04 299.067 381.06 279.805 384.064 273.051C387.592 264.796 391.119 261.169 398.305 258.542C407.319 255.04 423.389 255.415 431.358 259.417ZM515.232 360.856C515.363 361.231 499.947 361.106 480.873 360.48C461.798 359.855 446.252 358.979 446.382 358.604C446.382 358.229 449.256 355.852 452.653 353.351C460.231 347.722 468.853 335.715 471.989 326.459L474.21 319.705L494.46 339.842C505.695 350.974 514.971 360.48 515.232 360.856ZM353.493 324.333C353.493 325.333 355.322 329.711 357.543 334.089C361.593 341.969 369.04 350.474 376.879 356.228L381.321 359.48L349.443 360.23C331.937 360.73 315.868 361.481 313.777 361.856C310.511 362.482 312.993 359.355 330.63 341.844C341.997 330.462 351.795 321.331 352.448 321.706C352.971 322.081 353.493 323.207 353.493 324.333Z" fill="#951610"/>
</svg>
