<svg width="1275" height="1500" viewBox="0 0 1275 1500" fill="none" xmlns="http://www.w3.org/2000/svg">
<path d="M1081.85 60.8168C1174.69 140.301 1184.78 317.466 1205.98 461.113C1226.16 604.76 1256.43 714.889 1269.55 841.298C1281.66 968.665 1277.63 1112.31 1215.06 1242.55C1151.48 1372.79 1030.38 1488.67 895.146 1499.2C758.907 1509.74 609.547 1413.97 482.39 1336.4C355.233 1259.79 249.269 1201.37 200.828 1115.19C152.387 1029 160.46 915.037 122.111 794.374C83.7623 673.71 0 548.259 0 420.892C0 294.482 83.7623 167.116 204.864 100.08C325.967 32.0874 482.39 24.4263 648.906 11.0192C814.412 -1.43016 989.001 -19.6255 1081.85 60.8168Z" fill="#333333"/>
</svg>
