<?xml version="1.0" encoding="UTF-8"?>
<svg id="Ebene_1" xmlns="http://www.w3.org/2000/svg" version="1.1" viewBox="0 0 644.04 678">
  <!-- Generator: Adobe Illustrator 29.3.1, SVG Export Plug-In . SVG Version: 2.1.0 Build 151)  -->
  <defs>
    <style>
      .st0 {
        fill: #d6b54b;
      }
    </style>
  </defs>
  <path class="st0" d="M630.12,548.32c-118.42-294.35-34.97-343.4-78.27-441.52C498.72-6.71,245.59-45.85,164.62,69.6c-101.21,144.31-304.05,274.31-17.62,452.96,286.43,178.65,562.86,223.95,483.12,25.76ZM223.85,302.56c24.04-1.97,47.38-15.68,65.23-31.41,5.35,13.69,10.02,27.07,19.05,38.9-12.89,34-35.19,66.21-65.31,86.74-15.66-28.64-20.91-61.77-18.97-94.23ZM347.18,330.37c-26.91-11.36-45.15-34.64-50.69-63.34,18.79-22.01,36.48-44.81,50.4-70.31l50.49,71.86c-5.76,27.78-24.42,50.41-50.2,61.79ZM379.89,317.43c3.15,6.6,19.5,31.81,18.75,36.83-.85,5.68-15.21,26.37-19.59,31.78-8.67,10.72-18.92,19.8-30.8,26.99-15.3-1.18-55.69-52.01-52.73-62.55l17.53-33.04,33.84,20.89,33-20.9ZM282.54,446.45c-3.77-.91-26.26-45.52-25.33-50.23,6.57-8.21,14.97-14.76,21.98-22.53,2.16-2.4,9.57-15.29,12.35-13.25,5.03,14.51,15.97,26.12,24.54,38.56-8.04,17.58-18.33,35.45-33.53,47.44ZM374.99,464.67c-6.4,6.71-22.1,19.92-31.71,16.94-12.08-3.74-38.6-29.66-41.12-41.75-1-4.79,9.14-15.78,12.2-21.02,2.98-5.1,4.37-10.7,7.76-15.35l24.78,17.54,24.78-17.54,20.41,32.6c1.49,5.46-12.75,24.04-17.09,28.59ZM411.3,446.43c-9.78-9.08-31.7-34.14-32.19-47.31-.22-5.86,23.36-28.46,23.13-38.67,3.01-2.19,13.16,13.84,15.64,16.56,6.02,6.58,13.16,12.17,18.69,19.22-5.37,17.95-13.15,35.76-25.27,50.2ZM467.48,350.54c-1.23,6.27-11.86,45.91-16.52,46.25-19.51-13.12-36.02-32.45-48.43-52.37-3.73-5.98-14.72-24.58-16.14-30.29-1.48-5.96,8.09-16.93,11.17-23.68,2.76-6.05,4.37-12.97,6.33-19.31,14.33,11.64,29.92,21.52,47.45,27.72,4.56,1.61,19.08,3.59,20.03,6.4,2.58,7.64-2.07,36.01-3.9,45.29ZM488.09,299.24c-69.44-4.72-112.68-61.65-141.21-119.11-27.69,58.17-73.16,115.73-142.86,119.1,14.51-63.87,60.66-126.26,130.2-132.61.56-6.76,2.88-13.35,1.82-20.29-1.11-7.31-15.33-20.25-1.99-22.15,15.86-2.26,28.47,31.2,25.2,44.39,52.5,1.98,95.58,45.15,117.04,90.37,2.86,6.02,15.51,35.87,11.78,40.29Z"/>
</svg>