<?xml version="1.0" encoding="UTF-8"?>
<svg id="Ebene_1" data-name="Ebene 1" xmlns="http://www.w3.org/2000/svg" viewBox="0 0 1275 1500">
  <defs>
    <style>
      .cls-1 {
        fill: #d6b54c;
      }
    </style>
  </defs>
  <path class="cls-1" d="M1066.66,266.36C936.91,118.2,787.14,61.75,603.4,25.3,419.66-11.15,202.84-27.62,93.12,114.67-16.6,256.95-17.47,557.98,29.55,849.61c46.15,290.45,141.07,571.49,285.62,634.99,144.55,64.68,337.87-87.02,530.31-219.89,191.57-134.06,381.41-250.47,421.46-429.21,39.19-178.74-70.53-419.8-200.28-569.14ZM371,991.04c-38.5-71.55-54.35-154.34-48.29-235.55,2.25-6.62,51.57-17.39,63.12-21.9,36.39-14.23,75.25-39.44,104.19-65.8,3.11-.07,18.82,50.4,22.63,58.12,4.8,9.73,24.2,33.4,25.62,38.52,3.1,11.19-26.44,65.65-34.2,79.06-33,57.05-78.64,110.38-133.06,147.55ZM639.49,820.14c-69.24-29.23-116.16-89.13-130.42-162.96,48.33-56.64,93.87-115.29,129.68-180.9l129.9,184.88c-15.03,70.57-63.02,130.43-129.16,158.98ZM723.65,786.85c8.1,16.98,50.17,81.84,48.24,94.76-2.19,14.63-39.14,67.84-50.39,81.75-22.3,27.57-48.68,50.93-79.23,69.44-39.38-3.05-143.28-133.81-135.67-160.93l45.1-85,87.06,53.74,84.9-53.76ZM473.18,1118.8c-29.71-38.41-49.67-83.49-65.36-129.18,17.07-21.04,38.67-37.99,56.75-58.02,5.57-6.17,24.61-39.34,31.76-34.08,12.98,34.97,38.31,67.32,62.36,95.64.42,22.15-72.69,128.74-85.51,125.64ZM648.49,1209.7c-29.96,8.46-81.54-43.32-98.65-65.7-7.43-9.71-29.5-40.35-25.95-50.49,3.34-9.53,24.09-33.86,31.14-45.77,7.75-13.08,11.18-27.55,19.96-39.5l63.74,45.12,63.74-45.13,51.41,84.94c-7.71,40.93-65.11,105.13-105.4,116.51ZM804.48,1118.74c-23.61-18.78-93.55-104.14-80.83-131.73,2.2-4.78,12.31-11.29,16.73-17.5,15.58-21.88,32.83-46.23,40.78-71.99,8.07-5.86,29.89,31.57,36.01,38.34,16.72,18.5,36.78,34.06,52.33,53.72-13.53,46.56-34.28,91.51-65.02,129.15ZM949,872.02c-3.17,16.14-30.51,118.12-42.49,118.98-59.21-40.21-107.87-101.58-141.55-164.57-7.32-13.68-28.23-47.93-24.64-60.9,2.56-9.26,22.32-33.94,28.79-48.14,7.1-15.57,11.24-33.36,16.29-49.69,36.87,29.96,76.99,55.37,122.08,71.31,11.73,4.15,49.09,9.25,51.54,16.48,6.65,19.65-5.33,92.65-10.03,116.52ZM1002.05,740.04c-178.03-12.4-290.16-158.76-363.31-306.44-71.79,150.33-187.69,296.91-367.56,306.44,30.66-137.67,129.67-290.92,272.87-328.88,20.62-5.46,41.86-5.7,61.94-12.49,3.49-16.89,7.6-34.55,4.85-52.02-2.97-18.84-39.36-52.11-5.1-56.98,40.82-5.81,73.25,80.29,64.85,114.22,132.02,5.46,240.72,110.84,296.98,223.92,8.11,16.3,44.62,100.24,34.48,112.25Z"/>
</svg>