<?xml version="1.0" encoding="UTF-8"?>
<svg id="Ebene_1" data-name="Ebene 1" xmlns="http://www.w3.org/2000/svg" viewBox="0 0 1275 1500">
  <defs>
    <style>
      .cls-1 {
        fill: #d6b54c;
      }
    </style>
  </defs>
  <path class="cls-1" d="M894.39,606.51c-54.93,78.94-132.61,163.11-91.41,267.14,27.86,70.33,132.53,83.13,178.5,26.82,67.98-83.3-6.98-214.2-67.82-280.32-3.24-3.52-14.08-17.21-19.26-13.64ZM948.56,821c1.16-11.16-5.95-28.48,1.15-35.37,14.57-14.12,26.86,3.04,29.28,17.38,9.59,56.91-46.26,108.71-101.73,97.58-24.06-32.01,19.83-25.78,40.63-36.33,16.2-8.22,28.78-25.18,30.67-43.26Z"/>
  <path class="cls-1" d="M468.48,327.73c-68.84,85.07-154.4,187.07-188.75,292.19-38.85,118.91,7.37,258.95,142.47,280.51,140.04,22.35,239.66-47.21,246.74-191.13,6.61-134.29-123.01-280.59-200.46-381.57ZM408.07,868.01c-58.83-13.8-96.48-64.28-107.7-121.22-3.41-17.31-15.39-110.96,15.92-104.86,18.2,3.55,9.23,63.24,11.32,81.61,8.43,74.2,49.66,112.62,122.88,123.53,5.71,32.14-20.4,26.1-42.42,20.94Z"/>
  <path class="cls-1" d="M680.11,945.9c-39.96,57.16-102.18,129.81-59.7,202.51,29.14,49.87,115.17,40.87,134.77-16.31,25.68-74.91-32.74-129.3-67.05-188.66l-8.02,2.46ZM670.55,1148.76c-51.58,5.16-39.9-106.31-6.66-72.71,9.66,9.77-1.69,24.1,1.5,35.06.72,2.49,40.46,34.12,5.16,37.65Z"/>
  <path class="cls-1" d="M1269.55,841.3c-13.12-126.41-43.39-236.54-63.57-380.18-21.2-143.65-31.29-320.81-124.13-400.3C989-19.63,814.41-1.43,648.91,11.02c-166.52,13.41-322.94,21.07-444.04,89.06C83.76,167.12,0,294.48,0,420.89s83.76,252.82,122.11,373.48c38.35,120.66,30.28,234.63,78.72,320.82,48.44,86.18,154.41,144.6,281.56,221.21,127.16,77.57,276.52,173.34,412.76,162.8,135.23-10.53,256.33-126.41,319.91-256.65,62.57-130.24,66.6-273.89,54.49-401.25ZM422.28,931.33c-150.28-18.97-211.29-167.15-176.31-302.44,22.87-88.43,138.18-266.86,205.01-330.26,4.32-4.1,8.58-7.64,14.52-9.2,12.59-1.81,42.24,37.04,51.48,48.01,69.34,82.38,180.77,243.49,183.08,352.12,3.63,171.41-110.2,262.92-277.78,241.77ZM728.62,1202.45l-24.86,8.18h-42.78c-44.16-12.05-70.28-35.37-80.59-80.46-13.44-58.78,6.11-99.12,36.19-147.7,8.95-14.46,42.52-63.99,53.3-72.71,16.65-13.47,27,.92,37.64,12.48,67.26,73.05,138.58,218.59,21.09,280.21ZM1024.55,885.27c-44.12,114.12-222.13,105.9-255.98-19.95-20.85-77.55,5.89-136.19,46.35-200.41,10.56-16.76,69.15-99.72,85.23-99.71,17.97,0,90.16,106.5,101.18,126.43,35.26,63.72,50.71,122.53,23.21,193.65Z"/>
</svg>