<?xml version="1.0" encoding="UTF-8"?>
<svg id="Ebene_1" xmlns="http://www.w3.org/2000/svg" version="1.1" viewBox="0 0 644.04 677.94">
  <!-- Generator: Adobe Illustrator 29.3.1, SVG Export Plug-In . SVG Version: 2.1.0 Build 151)  -->
  <defs>
    <style>
      .st0 {
        fill: #d6b54a;
      }
    </style>
  </defs>
  <path class="st0" d="M353.02,413.16c-15.36,21.96-39.27,49.88-22.94,77.82,11.2,19.16,44.26,15.71,51.79-6.27,9.87-28.79-12.58-49.69-25.77-72.5l-3.08.94ZM349.35,491.12c-19.82,1.98-15.33-40.85-2.56-27.94,3.71,3.75-.65,9.26.58,13.47.28.96,15.55,13.11,1.98,14.47Z"/>
  <path class="st0" d="M271.7,175.61c-26.46,32.69-59.34,71.89-72.53,112.28-14.93,45.7,2.83,99.51,54.75,107.8,53.82,8.59,92.1-18.14,94.82-73.45,2.54-51.61-47.27-107.83-77.03-146.63ZM248.48,383.23c-22.61-5.3-37.08-24.7-41.39-46.58-1.31-6.65-5.91-42.64,6.12-40.3,6.99,1.36,3.55,24.3,4.35,31.36,3.24,28.52,19.08,43.28,47.22,47.47,2.19,12.35-7.84,10.03-16.3,8.05Z"/>
  <path class="st0" d="M435.37,282.74c-21.11,30.33-50.96,62.68-35.13,102.66,10.71,27.03,50.93,31.95,68.59,10.31,26.13-32.01-2.68-82.31-26.06-107.72-1.24-1.35-5.41-6.61-7.4-5.24ZM456.18,365.17c.45-4.29-2.29-10.95.44-13.59,5.6-5.43,10.32,1.17,11.25,6.68,3.69,21.87-17.78,41.78-39.09,37.5-9.25-12.3,7.62-9.91,15.61-13.96,6.22-3.16,11.06-9.68,11.78-16.62Z"/>
  <path class="st0" d="M630.12,548.25c-118.42-294.35-34.97-343.4-78.27-441.52C498.72-6.77,245.59-45.91,164.62,69.54c-101.21,144.31-304.05,274.31-17.62,452.96,286.43,178.65,562.86,223.95,483.12,25.76ZM253.94,407.57c-57.75-7.29-81.2-64.23-67.75-116.22,8.79-33.98,53.1-102.55,78.78-126.92,1.66-1.58,3.3-2.94,5.58-3.53,4.84-.7,16.23,14.23,19.78,18.45,26.65,31.66,69.47,93.57,70.35,135.32,1.4,65.87-42.35,101.04-106.75,92.91ZM371.66,511.75l-9.55,3.14h-16.44c-16.97-4.63-27.01-13.59-30.97-30.92-5.17-22.59,2.35-38.09,13.91-56.76,3.44-5.56,16.34-24.59,20.48-27.94,6.4-5.18,10.38.36,14.47,4.8,25.85,28.07,53.25,84,8.1,107.68ZM485.39,389.87c-16.96,43.85-85.36,40.7-98.37-7.67-8.01-29.8,2.26-52.34,17.81-77.02,4.06-6.44,26.57-38.32,32.75-38.32,6.91,0,34.65,40.93,38.88,48.58,13.55,24.49,19.49,47.09,8.92,74.42Z"/>
</svg>