<?xml version="1.0" encoding="UTF-8"?>
<svg id="Ebene_1" data-name="Ebene 1" xmlns="http://www.w3.org/2000/svg" viewBox="0 0 1275 1500">
  <defs>
    <style>
      .cls-1 {
        fill: #d6b54c;
      }
    </style>
  </defs>
  <path class="cls-1" d="M1198.19,332.11C1082.59,123.57,829.21-4.66,585.17.13,342.3,6.12,107.6,146.35,30.53,330.92c-77.07,185.77,2.34,415.88,120.27,655.58,116.77,239.7,270.9,488.99,463.56,511.76,193.83,22.77,426.2-179.77,552.31-425.47,127.27-244.49,148.29-533.33,31.52-740.67ZM836.99,846.79c-9.04-55.4,37.34-61.92,73.58-85.18-4.2,45.01-19.26,89.63-73.58,85.18ZM910.58,835.16c-4.2,45.01-19.26,89.63-73.58,85.18-9.04-55.4,37.34-61.92,73.58-85.18ZM897,513.9c9.8,2.15,5.24,48.92,5.91,59.94,2.73,44.84,5.47,89.31-1.03,134.53-5.58,38.8-21.37,66.17-64.86,64.88-7.18-40.64,19.21-53.48,50.53-68.4,3.56-43.63,4.84-87.26,3.89-131.15-.19-8.89-12.63-63.78,5.57-59.79ZM807.85,660.85c3.33-12.79,17.19-25.39,17.8-40.58.36-8.85-4.21-17.56-4.3-26.88-.39-41.18.65-82.58.95-123.57,2.39-7.12,7.97-6.84,14.71-6.26v164.51c0,2.59,17.68,29.63,19.12,43,2.65,24.52-7.36,36.82-24.94,51.76-21.71-17.91-30.96-32.8-23.35-61.98ZM759.33,527.23c1.91-18.48,14.59-17.96,16.04.18.84,10.49-4.03,20.42-4.37,30.83-1.05,32.03-4.42,120.6,4.66,146.63,2.36,6.77,20.18,9.92,27.79,14.81,20.09,12.91,23.79,30.61,21.95,53.58-33.57,1.78-51.15-10.91-60.13-42.52-14.71-51.76-11.58-148.96-5.93-203.49ZM825.4,846.79c-55.39,4.27-70.46-38.05-73.58-85.18,36.54,24.52,81.26,28.26,73.58,85.18ZM825.4,920.33c-55.39,4.27-70.46-38.05-73.58-85.18,36.54,24.52,81.26,28.26,73.58,85.18ZM692.94,495.73c8.92-23.77,5.74-112.54,4.76-142.65-.38-11.69-5.55-22.43-4.32-34.76,1.84-18.42,13.98-18.4,15.96-.1,5.56,51.31,9.2,169.62-9.91,214.97-11.63,27.59-26.44,33.08-56.14,31.02-1.19-14.81.09-30.54,9.86-42.43,9.76-11.88,36.26-16.65,39.78-26.05ZM716.9,556.48c-5.23,45.13-18.25,89.28-73.6,81.28-1.79-18.71,1.76-35.45,13.86-50.05l59.74-31.23ZM614.99,452.66c3.2-12.63,14.76-24.31,16.53-33.79,6.79-36.4-4.67-90.98.17-129.5h11.62c4.84,38.52-6.61,93.1.17,129.5,3.12,16.75,20.44,27.29,19.54,54.4-2,60.4-64.27,43.41-48.04-20.62ZM571.7,304.87c18.31-4.01,5.84,48.06,5.59,55.95-1.41,44.94-.7,90.49,4.68,134.99,28.73,19,55.97,26.05,49.73,68.4-22.6,1.19-38.81-.2-51.16-20.52-24.57-40.41-17.56-135.8-14.55-182.56.68-10.5-4.27-54.08,5.71-56.27ZM617.85,587.71c12.1,14.6,15.65,31.34,13.86,50.05-55.35,8-68.37-36.15-73.6-81.28l59.74,31.23ZM617.85,661.25c17.79,26.8,28.77,63.83-17.23,48.17-34.37-11.7-36.89-48.59-42.51-79.4l59.74,31.23ZM449.6,846.79c-7.68-56.92,37.04-60.66,73.58-85.18-3.12,47.13-18.19,89.45-73.58,85.18ZM523.18,835.16c-3.12,47.13-18.19,89.45-73.58,85.18-7.68-56.92,37.04-60.66,73.58-85.18ZM499.25,704.76c8.63-18.89,5.65-122.87,4.76-150.4-.51-15.87-14.75-42.47,11.44-40.47,1.62,65.39,10.39,136.75-1.71,201.47-6.99,37.38-22.41,60.79-64.14,57.88-1.84-22.95,1.87-40.68,21.95-53.57,8.74-5.61,24.2-7.26,27.7-14.9ZM418.87,671.07c1.44-13.37,19.12-40.41,19.12-43v-164.51c9.31-1.05,13.77.07,15.5,9.68l-2.06,154.99c19.68,35.34,30.53,67.19-7.63,94.61-17.58-14.94-27.58-27.24-24.94-51.76ZM371.95,527.24c1.96-18,13.68-18.71,15.85-.01,4.03,34.68-6.3,88.1-4.23,128.12.39,7.57,3.33,49.27,4.68,51.47,1.02,1.65,26.42,10.96,34.36,17.91,16.69,14.6,16.86,27,15.38,48.52-28.37.78-48.1-10.55-57.91-36.99-14.85-40.04-13.1-163.49-8.13-209ZM438.01,846.79c-54.32,4.45-69.38-40.16-73.58-85.18,36.24,23.25,82.62,29.78,73.58,85.18ZM438.01,920.34c-54.32,4.45-69.38-40.16-73.58-85.18,35.92,24.46,82.66,28.64,73.58,85.18ZM364.42,908.71c35.92,24.46,82.66,28.64,73.58,85.18-54.32,4.45-69.38-40.16-73.58-85.18ZM453.49,1210.63h-15.5v-203.22c0-1.03,4.45-3.88,5.81-5.73,1.81,2.48,9.68,8.39,9.68,9.6v199.35ZM449.6,993.88c-7.7-58.01,37.36-59.65,73.58-85.17-3.13,45.7-18.42,91.93-73.58,85.17ZM558.1,703.57l60.66,32.25c9.29,9.55,18.02,37.33,11.1,49.25-53.8,7.29-67.53-37.75-71.76-81.5ZM643.31,1210.63h-11.62v-414.18h11.62v414.18ZM677.09,781.81c-45.84,18.48-39.39-14.23-22.25-44.37l62.06-33.87c-5.48,30.57-6.81,64.94-39.81,78.24ZM674.39,709.42c-46.01,15.66-35.02-21.37-17.23-48.17l59.74-31.23c-5.62,30.81-8.14,67.7-42.51,79.4ZM751.82,908.7c36.54,24.52,81.26,28.26,73.58,85.17-55.16,6.76-70.45-39.47-73.58-85.17ZM837.01,1210.63h-15.5v-199.35c0-1.21,7.88-7.12,9.68-9.6,1.36,1.85,5.81,4.7,5.81,5.73v203.22ZM836.99,993.88c-9.07-56.54,37.66-60.72,73.58-85.18-4.2,45.01-19.27,89.63-73.58,85.18Z"/>
</svg>