<?xml version="1.0" encoding="UTF-8"?>
<svg id="Ebene_1" xmlns="http://www.w3.org/2000/svg" version="1.1" viewBox="0 0 643.25 678">
  <!-- Generator: Adobe Illustrator 29.3.1, SVG Export Plug-In . SVG Version: 2.1.0 Build 151)  -->
  <defs>
    <style>
      .st0 {
        fill: #d6b54c;
      }
    </style>
  </defs>
  <path class="st0" d="M630.12,548.32c-118.42-294.34-34.97-343.4-78.27-441.52C498.72-6.71,245.59-45.85,164.62,69.6c-101.21,144.31-304.05,274.31-17.62,452.96,286.43,178.65,562.86,223.95,483.12,25.76ZM411.36,324.71c-3.32-20.36,13.73-22.76,27.05-31.31-1.54,16.55-7.08,32.95-27.05,31.31ZM438.4,320.44c-1.54,16.55-7.08,32.95-27.05,31.31-3.32-20.36,13.73-22.76,27.05-31.31ZM433.41,202.34c3.6.79,1.93,17.98,2.17,22.03,1,16.48,2.01,32.83-.38,49.45-2.05,14.26-7.86,24.33-23.84,23.85-2.64-14.94,7.06-19.66,18.57-25.14,1.31-16.04,1.78-32.08,1.43-48.21-.07-3.27-4.64-23.45,2.05-21.98ZM407.16,191.57c-.07-4.55-3.64-8.19,4.2-7.74v60.48c0,.95,6.5,10.89,7.03,15.81.97,9.01-2.71,13.54-9.17,19.03-5.71-5.39-9.39-7.82-9.37-16.34.02-9.26,6.3-13.35,7.27-21.31,1.67-13.6.25-35.45.04-49.92ZM382.81,207.24c.7-6.79,5.36-6.6,5.89.07.31,3.86-1.48,7.51-1.61,11.33-.59,17.88-.43,36.2,1.71,53.9.87,2.49,7.42,3.65,10.22,5.44,7.38,4.74,8.75,11.25,8.07,19.69-12.34.65-18.8-4.01-22.11-15.63-5.41-19.03-4.26-54.76-2.18-74.8ZM407.09,324.71c-20.36,1.57-25.9-13.99-27.05-31.31,13.43,9.01,29.87,10.39,27.05,31.31ZM407.09,351.75c-20.36,1.57-25.9-13.99-27.05-31.31,13.43,9.01,29.87,10.39,27.05,31.31ZM360.15,143.22c-.14-4.3-2.04-8.24-1.59-12.78.68-6.77,5.14-6.77,5.87-.04,2.04,18.86,3.38,62.35-3.64,79.03-4.27,10.14-9.72,12.16-20.64,11.4-2.31-15.6,7.75-18.11,18.25-25.18,2.22-17.2,2.32-35.04,1.75-52.44ZM335.88,168.89v-49.09h4.27v49.09c0,.57,4.73,6.3,5.77,9.89,6.79,23.51-15.34,31.22-17.22,10.03-.89-9.96,7.19-18.84,7.19-19.92ZM313.83,125.5c6.73-1.47,2.15,17.67,2.06,20.57-.52,16.52-.26,33.26,1.72,49.62,10.56,6.98,20.58,9.58,18.28,25.14-8.31.44-14.27-.07-18.81-7.54-9.03-14.86-6.46-49.92-5.35-67.11.25-3.86-1.57-19.88,2.1-20.68ZM330.79,229.47c4.45,5.37,5.75,11.52,5.09,18.4-20.35,2.94-25.14-13.29-27.06-29.88l21.96,11.48ZM330.79,256.51c3.54,3.27,7.81,16.3,3.71,19.2-19.61.47-23.68-14.27-25.67-30.68l21.96,11.48ZM268.95,324.71c-2.82-20.92,13.62-22.3,27.05-31.31-1.15,17.33-6.69,32.88-27.05,31.31ZM295.99,320.44c-1.15,17.33-6.69,32.88-27.05,31.31-2.82-20.92,13.62-22.3,27.05-31.31ZM287.2,272.5c2.35-17.78,2.33-37.24,1.75-55.29-.19-5.83-5.42-15.61,4.21-14.88.6,24.04,3.82,50.27-.63,74.06-2.57,13.74-8.24,22.35-23.58,21.28-.67-8.44.69-14.96,8.07-19.69,3.21-2.06,8.9-2.67,10.18-5.48ZM257.65,260.12c.53-4.92,7.03-14.86,7.03-15.81v-60.48l5.58,2.34c-.68,16.75-3.36,38.84-1.34,55.32.97,7.96,7.25,12.05,7.27,21.31.02,8.52-3.66,10.95-9.37,16.34-6.46-5.49-10.14-10.01-9.17-19.03ZM240.4,207.25c.17-1.59.45-4.52,2.22-4.91,6.9-1.51,2.13,20.32,2.06,23.41-.37,15.92.21,31.71,1.71,47.5,11.9,4.07,20.78,10.47,18.28,24.42-10.43.29-17.68-3.88-21.29-13.6-5.52-14.89-4.83-59.94-2.99-76.83ZM264.68,324.71c-19.97,1.64-25.5-14.76-27.05-31.31,13.32,8.55,30.37,10.95,27.05,31.31ZM264.68,351.75c-19.97,1.64-25.5-14.76-27.05-31.31,13.21,8.99,30.39,10.53,27.05,31.31ZM237.63,347.47c13.21,8.99,30.39,10.53,27.05,31.31-19.97,1.64-25.5-14.76-27.05-31.31ZM270.37,458.46h-5.7c1.34-22.93-1.78-47.79-.06-70.5.19-2.55-.4-4.6,2.2-6.31l3.63,6.3-.07,70.51ZM268.94,378.78c-2.83-21.33,13.73-21.93,27.05-31.31-1.15,16.8-6.77,33.79-27.05,31.31ZM308.83,272.07l22.3,11.85c3.42,3.51,6.62,13.72,4.08,18.11-19.78,2.68-24.82-13.88-26.38-29.96ZM335.88,458.46c1.92-49.48-2.56-100.89-.01-150.17.17-3.23.75-2.07,3.56-2.1l.72,152.26h-4.27ZM352.57,300.83c-16.85,6.79-14.48-5.23-8.18-16.31l22.81-12.45c-2.01,11.24-2.5,23.87-14.63,28.76ZM341.54,275.71c-4.1-2.9.17-15.92,3.71-19.2l21.96-11.48c-1.99,16.41-6.07,31.15-25.67,30.68ZM340.15,247.87c-.66-6.88.65-13.03,5.09-18.4l21.96-11.48c-1.92,16.59-6.71,32.82-27.06,29.88ZM380.05,347.47c13.43,9.01,29.87,10.39,27.05,31.31-20.28,2.48-25.9-14.51-27.05-31.31ZM411.36,458.46h-4.27c.88-5.61-1.54-10.88-1.55-16.36-.02-10.65,1.62-23.38,1.65-34.17.01-6.93-1.5-14-.8-21.93.22-2.51,1.09-2.79,2.84-4.35,2.6,1.71,2.01,3.76,2.2,6.31,1.72,22.7-1.41,47.57-.06,70.5ZM411.36,378.79c-3.34-20.78,13.84-22.32,27.05-31.31-1.54,16.55-7.08,32.95-27.05,31.31Z"/>
</svg>